<svg version="1.1" id="Layer_1" xmlns="http://www.w3.org/2000/svg" xmlns:xlink="http://www.w3.org/1999/xlink" x="0px" y="0px"
	 width="100%" viewBox="0 0 1024 1024" enable-background="new 0 0 1024 1024" xml:space="preserve">
<path fill="#000000" opacity="1.000000" stroke="none" 
	d="
M720.464111,676.535217 
	C738.554382,693.926697 759.504822,706.208923 782.589294,714.511108 
	C813.655701,725.683960 837.818481,745.476379 857.477600,771.428467 
	C884.640808,807.286865 911.530151,843.358459 939.135193,878.873596 
	C949.073730,891.660095 950.215149,904.793701 943.931152,918.622314 
	C933.347839,941.912048 916.324890,957.989441 890.192993,962.445312 
	C882.649353,963.731506 875.698853,961.810608 869.347961,957.466858 
	C850.904541,944.852478 833.480042,930.876831 815.655762,917.435669 
	C793.707703,900.884705 771.470581,884.697632 749.927307,867.634949 
	C728.155090,850.390991 711.169556,829.279846 701.538147,802.755005 
	C690.668762,772.820801 674.239014,746.495483 650.276367,725.163330 
	C634.203857,710.855164 616.456116,699.219971 596.354126,691.400818 
	C592.591370,689.937195 589.771301,687.887024 587.672119,684.412720 
	C584.658936,679.425598 581.276978,674.661499 578.054016,669.801086 
	C573.904236,663.543030 573.833923,663.433289 567.743042,667.392517 
	C546.679810,681.084045 524.253235,691.996887 500.462311,699.981628 
	C478.769562,707.262329 456.562469,712.281250 433.604553,713.399963 
	C432.470306,713.455261 431.331055,713.407043 430.358795,713.407043 
	C428.991699,710.943237 430.364227,709.118835 430.932892,707.342346 
	C440.524506,677.378662 450.240417,647.454834 459.814423,617.485535 
	C460.872650,614.172974 463.011169,612.759949 466.113922,611.894836 
	C489.175201,605.465088 510.287201,595.009521 529.214294,580.379700 
	C568.288330,550.177124 593.046631,510.835693 601.531982,462.166504 
	C610.832886,408.819641 599.591736,359.335632 568.297302,315.220947 
	C540.942566,276.659851 503.391449,252.729294 456.869812,243.263611 
	C450.683105,242.004807 444.555878,240.385300 438.192078,240.227280 
	C434.146210,240.126831 433.942902,237.363876 433.951233,234.309845 
	C433.991669,219.477173 433.984833,204.644348 433.992950,189.811584 
	C433.999451,177.978668 433.992065,166.145737 434.012451,154.312836 
	C434.026154,146.355408 434.262054,146.006439 442.218506,146.816772 
	C467.652191,149.407074 492.542114,154.370377 516.482544,163.669067 
	C584.137451,189.946930 634.710815,235.368011 668.235596,299.590698 
	C683.148499,328.158905 692.074890,358.694458 696.526489,390.695374 
	C705.917480,458.204895 691.361206,520.300415 655.636169,577.858826 
	C648.540466,589.291199 648.135681,589.950439 659.898621,596.744141 
	C670.154358,602.667419 675.978699,610.895630 680.575134,621.581604 
	C689.627686,642.627319 703.859497,660.322327 720.464111,676.535217 
M886.318542,920.215088 
	C887.872864,921.155762 889.321411,922.406006 891.001099,922.979675 
	C896.292419,924.787170 901.266357,924.062622 905.258057,919.931885 
	C909.377930,915.668579 910.000610,910.493652 907.966309,905.106506 
	C905.992676,899.879883 901.775879,897.434875 896.369751,897.112305 
	C891.124817,896.799316 886.816345,898.871887 884.220825,903.450806 
	C881.021912,909.094238 881.670105,914.622253 886.318542,920.215088 
z"/>
<path fill="#000000" opacity="1.000000" stroke="none" 
	d="
M159.842468,302.925903 
	C182.596344,257.697876 214.859665,221.258224 256.524719,193.301437 
	C291.187286,170.043243 329.234344,155.142700 370.624756,148.994324 
	C374.969269,148.348953 375.504120,149.876083 374.404999,153.653687 
	C365.244507,185.137207 356.181671,216.649200 347.124481,248.162689 
	C346.423737,250.600891 345.015961,252.010483 342.645996,253.042786 
	C280.165527,280.257660 240.439423,326.712250 227.524292,393.858856 
	C217.224350,447.408752 227.849243,497.674896 259.237823,542.606079 
	C285.596710,580.337463 321.644928,604.444153 366.780914,614.396240 
	C370.851074,615.293579 372.298676,616.853516 372.278870,620.974609 
	C372.143463,649.140442 372.215271,677.307129 372.181702,705.473572 
	C372.174744,711.313354 371.438416,711.944824 365.801453,711.002808 
	C277.988220,696.329529 212.481537,649.523071 167.987976,572.937500 
	C147.273209,537.281738 135.520309,498.563660 131.808517,457.527161 
	C126.930161,403.593475 135.552719,352.001465 159.842468,302.925903 
z"/>
<path fill="#000000" opacity="1.000000" stroke="none" 
	d="
M370.786011,276.916046 
	C381.268555,240.279968 391.661957,204.042877 402.359741,166.744598 
	C404.743103,170.220566 404.048431,172.913193 404.049805,175.408752 
	C404.083618,237.073837 404.065338,298.738953 404.072906,360.404053 
	C404.074005,369.236176 404.163391,369.356476 412.370056,365.928467 
	C446.952515,351.483002 481.499390,336.952393 516.072083,322.483459 
	C518.008301,321.673126 519.819275,320.236572 523.050781,320.984985 
	C483.484894,444.134277 443.961304,567.151794 404.144928,691.080627 
	C402.090515,688.093079 402.712708,686.057617 402.711670,684.166687 
	C402.672882,613.835083 402.678680,543.503418 402.677063,473.171814 
	C402.677032,471.338562 402.728302,469.502045 402.639435,467.672699 
	C402.422058,463.196899 401.163483,462.373962 396.968109,464.201813 
	C385.056641,469.391449 373.179565,474.660126 361.294006,479.909149 
	C344.533539,487.311157 327.779968,494.728760 311.015411,502.121490 
	C309.668610,502.715393 308.362274,503.613495 305.721039,502.798981 
	C327.375122,427.653381 349.035980,352.484192 370.786011,276.916046 
z"/>
</svg>